<svg width="81" height="24" fill="none" xmlns="http://www.w3.org/2000/svg"><path d="M10.15 1.76h3.87L23.26 23h-5.28l-1.83-4.5H7.9L6.13 23H.97l9.18-21.24zm1.8 6.18l-2.58 6.6h5.19l-2.61-6.6zM24.886.32h4.5V23h-4.5V.32zm7.794 8.1h4.5V23h-4.5V8.42zm-.36-4.59c0-.72.25-1.33.75-1.83.52-.52 1.14-.78 1.86-.78.72 0 1.33.26 1.83.78.52.5.78 1.11.78 1.83s-.26 1.34-.78 1.86c-.5.5-1.11.75-1.83.75s-1.34-.25-1.86-.75a2.59 2.59 0 01-.75-1.86zm6.562 4.59h4.86l3.69 9.9h.06l3.42-9.9h4.53L49.682 23h-4.77l-6.03-14.58zm18.26 0h4.5V23h-4.5V8.42zm-.36-4.59c0-.72.25-1.33.75-1.83.52-.52 1.14-.78 1.86-.78.72 0 1.33.26 1.83.78.52.5.78 1.11.78 1.83s-.26 1.34-.78 1.86c-.5.5-1.11.75-1.83.75s-1.34-.25-1.86-.75a2.59 2.59 0 01-.75-1.86zm7.553 11.88c0-1.16.21-2.21.63-3.15.42-.94.99-1.74 1.71-2.4.74-.68 1.6-1.2 2.58-1.56 1-.36 2.06-.54 3.18-.54s2.17.18 3.15.54c1 .36 1.86.88 2.58 1.56.74.66 1.32 1.46 1.74 2.4.42.94.63 1.99.63 3.15s-.21 2.21-.63 3.15c-.42.94-1 1.75-1.74 2.43-.72.66-1.58 1.17-2.58 1.53-.98.36-2.03.54-3.15.54s-2.18-.18-3.18-.54c-.98-.36-1.84-.87-2.58-1.53a7.525 7.525 0 01-1.71-2.43c-.42-.94-.63-1.99-.63-3.15zm4.5 0c0 1.1.31 1.99.93 2.67.64.68 1.53 1.02 2.67 1.02s2.02-.34 2.64-1.02c.64-.68.96-1.57.96-2.67 0-1.1-.32-1.99-.96-2.67-.62-.68-1.5-1.02-2.64-1.02-1.14 0-2.03.34-2.67 1.02-.62.68-.93 1.57-.93 2.67z" fill="#01996D"/></svg>